<svg xmlns="http://www.w3.org/2000/svg" width="1000" height="320" viewBox="0 0 1000 320" role="img" aria-labelledby="title description">
  <title id="title">Languages personally contributed by awaqwq23</title>
  <desc id="description">Donut chart of languages in lines added or modified by awaqwq23 across 7 repositories, including accessible private repositories. Forks contribute only changes authored by this account. The top 14 languages are shown separately and the remainder is grouped as Other.</desc>
  <style>
    text { font-family: -apple-system, BlinkMacSystemFont, "Segoe UI", sans-serif; fill: #1f2328; }
    .title { font-size: 18px; font-weight: 600; fill: #1f2328; }
    .percentage { font-size: 12px; fill: #656d76; }
    .language { font-size: 14px; font-weight: 600; fill: #1f2328; }
    .count { font-size: 30px; font-weight: 700; fill: #1f2328; }
    .track { stroke: #d0d7de; }
    @media (prefers-color-scheme: dark) {
      .title, .language, .count { fill: #f0f6fc; }
      .percentage { fill: #8b949e; }
      .track { stroke: #30363d; }
    }
  </style>
  <text x="24" y="32" class="title">Coding Profile · Personally Contributed Languages</text>
  <g transform="rotate(-90 180 160)">
    <circle class="track" cx="180" cy="160" r="95" fill="none" stroke-width="32" />
    <circle cx="180" cy="160" r="95" fill="none" stroke="#178600" stroke-width="32" stroke-dasharray="247.802 349.100" stroke-dashoffset="-0.000" />
    <circle cx="180" cy="160" r="95" fill="none" stroke="#f1e05a" stroke-width="32" stroke-dasharray="158.928 437.975" stroke-dashoffset="-249.802" />
    <circle cx="180" cy="160" r="95" fill="none" stroke="#663399" stroke-width="32" stroke-dasharray="62.583 534.320" stroke-dashoffset="-410.730" />
    <circle cx="180" cy="160" r="95" fill="none" stroke="#e34c26" stroke-width="32" stroke-dasharray="44.172 552.730" stroke-dashoffset="-475.313" />
    <circle cx="180" cy="160" r="95" fill="none" stroke="#0C54C2" stroke-width="32" stroke-dasharray="40.331 556.571" stroke-dashoffset="-521.485" />
    <circle cx="180" cy="160" r="95" fill="none" stroke="#f34b7d" stroke-width="32" stroke-dasharray="14.477 582.426" stroke-dashoffset="-563.816" />
    <circle cx="180" cy="160" r="95" fill="none" stroke="#3572A5" stroke-width="32" stroke-dasharray="8.940 587.962" stroke-dashoffset="-580.293" />
    <circle cx="180" cy="160" r="95" fill="none" stroke="#555555" stroke-width="32" stroke-dasharray="0.940 595.962" stroke-dashoffset="-591.234" />
    <circle cx="180" cy="160" r="95" fill="none" stroke="#3178c6" stroke-width="32" stroke-dasharray="0.000 596.903" stroke-dashoffset="-594.174" />
    <circle cx="180" cy="160" r="95" fill="none" stroke="#012456" stroke-width="32" stroke-dasharray="0.000 596.903" stroke-dashoffset="-595.366" />
    <circle cx="180" cy="160" r="95" fill="none" stroke="#DA3434" stroke-width="32" stroke-dasharray="0.000 596.903" stroke-dashoffset="-596.373" />
    <circle cx="180" cy="160" r="95" fill="none" stroke="#41b883" stroke-width="32" stroke-dasharray="0.000 596.903" stroke-dashoffset="-596.664" />
  </g>
  <text x="180" y="154" text-anchor="middle" class="count">12</text>
  <text x="180" y="176" text-anchor="middle" class="percentage">languages</text>
  <text x="180" y="196" text-anchor="middle" class="percentage">7 repositories</text>
  <g transform="translate(345 67)"><circle cx="7" cy="-5" r="6" fill="#178600" /><text x="22" class="language">C#</text><text x="22" y="17" class="percentage">41.8% · 9,430 lines</text></g>
    <g transform="translate(345 103)"><circle cx="7" cy="-5" r="6" fill="#f1e05a" /><text x="22" class="language">JavaScript</text><text x="22" y="17" class="percentage">27.0% · 6,075 lines</text></g>
    <g transform="translate(345 139)"><circle cx="7" cy="-5" r="6" fill="#663399" /><text x="22" class="language">CSS</text><text x="22" y="17" class="percentage">10.8% · 2,438 lines</text></g>
    <g transform="translate(345 175)"><circle cx="7" cy="-5" r="6" fill="#e34c26" /><text x="22" class="language">HTML</text><text x="22" y="17" class="percentage">7.7% · 1,743 lines</text></g>
    <g transform="translate(345 211)"><circle cx="7" cy="-5" r="6" fill="#0C54C2" /><text x="22" class="language">XAML</text><text x="22" y="17" class="percentage">7.1% · 1,598 lines</text></g>
    <g transform="translate(565 67)"><circle cx="7" cy="-5" r="6" fill="#f34b7d" /><text x="22" class="language">C++</text><text x="22" y="17" class="percentage">2.8% · 622 lines</text></g>
    <g transform="translate(565 103)"><circle cx="7" cy="-5" r="6" fill="#3572A5" /><text x="22" class="language">Python</text><text x="22" y="17" class="percentage">1.8% · 413 lines</text></g>
    <g transform="translate(565 139)"><circle cx="7" cy="-5" r="6" fill="#555555" /><text x="22" class="language">C</text><text x="22" y="17" class="percentage">0.49% · 111 lines</text></g>
    <g transform="translate(565 175)"><circle cx="7" cy="-5" r="6" fill="#3178c6" /><text x="22" class="language">TypeScript</text><text x="22" y="17" class="percentage">0.20% · 45 lines</text></g>
    <g transform="translate(565 211)"><circle cx="7" cy="-5" r="6" fill="#012456" /><text x="22" class="language">PowerShell</text><text x="22" y="17" class="percentage">0.17% · 38 lines</text></g>
    <g transform="translate(785 67)"><circle cx="7" cy="-5" r="6" fill="#DA3434" /><text x="22" class="language">CMake</text><text x="22" y="17" class="percentage">0.05% · 11 lines</text></g>
    <g transform="translate(785 103)"><circle cx="7" cy="-5" r="6" fill="#41b883" /><text x="22" class="language">Vue</text><text x="22" y="17" class="percentage">0.04% · 9 lines</text></g>
</svg>
